<svg width="54" height="60" viewBox="0 0 54 60" fill="none" xmlns="http://www.w3.org/2000/svg">
<path d="M8 0.666672V6H5.33333C2.37333 6 0 8.37334 0 11.3333V48.6667C0 50.0812 0.561903 51.4377 1.5621 52.4379C2.56229 53.4381 3.91885 54 5.33333 54H21.6C24.96 57.3067 29.5733 59.3333 34.6667 59.3333C44.9867 59.3333 53.3333 50.9867 53.3333 40.6667C53.3333 35.5733 51.3067 30.96 48 27.6V11.3333C48 9.91885 47.4381 8.5623 46.4379 7.5621C45.4377 6.56191 44.0812 6 42.6667 6H40V0.666672H34.6667V6H13.3333V0.666672H8ZM5.33333 11.3333H42.6667V16.6667H5.33333V11.3333ZM5.33333 22H42.6667V23.7867C40.24 22.64 37.52 22 34.6667 22C24.3467 22 16 30.3467 16 40.6667C16 43.52 16.64 46.24 17.7867 48.6667H5.33333V22ZM34.6667 27.7333C41.8133 27.7333 47.6 33.52 47.6 40.6667C47.6 47.8133 41.8133 53.6 34.6667 53.6C27.52 53.6 21.7333 47.8133 21.7333 40.6667C21.7333 33.52 27.52 27.7333 34.6667 27.7333ZM32 32.6667V42.5067L40.5067 47.4133L42.5067 43.9467L36 40.1867V32.6667H32Z" fill="#858585"/>
</svg>
